{"accessors" : [{"bufferView" : 0, "byteOffset" : 0, "componentType" : 5123, "count" : 858, "type" : "SCALAR", "max" : [710], "min" : [0]}, {"bufferView" : 1, "byteOffset" : 0, "componentType" : 5126, "count" : 711, "type" : "VEC3", "max" : [4350, 8830, 2300], "min" : [-300, -300, 0], "name" : "POSITION"}, {"bufferView" : 0, "byteOffset" : 1716, "componentType" : 5123, "count" : 156, "type" : "SCALAR", "max" : [129], "min" : [0]}, {"bufferView" : 2, "byteOffset" : 0, "componentType" : 5126, "count" : 130, "type" : "VEC3", "max" : [1650, 5299.99951171875, 2300], "min" : [0, 2249.999755859375, 0], "name" : "POSITION"}], "asset" : {"generator" : "Aspose.3D 22.12", "version" : "2.0"}, "buffers" : [{"uri" : "data:application/octet-stream;base64,", "byteLength" : 14208}], "bufferViews" : [{"buffer" : 0, "byteOffset" : 0, "byteLength" : 2028, "target" : 34963}, {"buffer" : 0, "byteOffset" : 2032, "byteLength" : 10296, "byteStride" : 12, "target" : 34962}, {"buffer" : 0, "byteOffset" : 12332, "byteLength" : 1872, "byteStride" : 12, "target" : 34962}], "meshes" : [{"primitives" : [{"attributes" : {"POSITION" : 1}, "indices" : 0, "mode" : 4}], "name" : ""}, {"primitives" : [{"attributes" : {"POSITION" : 3}, "indices" : 2, "mode" : 4}], "name" : ""}], "nodes" : [{"mesh" : 0, "name" : "Body_01"}, {"mesh" : 1, "name" : "Body_02"}], "scene" : 0, "scenes" : [{"nodes" : [0, 1]}]}